# xmcd
#
# Track frame offsets: 
#        150
#        14338
#        27177
#        41102
#        60084
#        73157
#        90406
#        115098
#        134302
#        141122
#        163702
#
# Disc length: 2467 seconds
#
# Revision: 0
# Processed by: cddbd v1.5.2PL0 Copyright (c) Steve Scherf et al.
# Submitted via: ExactAudioCopy v0.95a5
#
DISCID=8c09a10b
DTITLE=Various Artist - The Best of the Muster Blues 2004
DYEAR=2004
DGENRE=Blues
TTITLE0=My Baby Cooks - Fiona Boyes
TTITLE1=Hey Baby - Ash Grunwald
TTITLE2=Two to the Valley - Andy Collins
TTITLE3=The Boss Lady - Chain
TTITLE4=Special Moments - Fingerprint
TTITLE5=Why are people like that - Gibson Martinis
TTITLE6=Bring it on home to me - Hardly Bizarre
TTITLE7=Crystal Moon Indigo Water - Harii Bandhu
TTITLE8=Tax Return - Peter Steel
TTITLE9=If She Won't - Kara Grainger
TTITLE10=Credit Card Woman - The Vibrolaters
EXTD=
EXTT0=
EXTT1=
EXTT2=
EXTT3=
EXTT4=
EXTT5=
EXTT6=
EXTT7=
EXTT8=
EXTT9=
EXTT10=
PLAYORDER=
